<svg xmlns="http://www.w3.org/2000/svg" version="1.1" xmlns:xlink="http://www.w3.org/1999/xlink" xmlns:svgjs="http://svgjs.dev/svgjs" width="1000" height="233" viewBox="0 0 1000 233"><g transform="matrix(1,0,0,1,0.24077157722274478,0.2607770340961224)"><svg viewBox="0 0 338 79" data-background-color="#ffffff" preserveAspectRatio="xMidYMid meet" height="233" width="1000" xmlns="http://www.w3.org/2000/svg" xmlns:xlink="http://www.w3.org/1999/xlink"><g id="tight-bounds" transform="matrix(1,0,0,1,-0.08138079310128887,-0.08841796435018523)"><svg viewBox="0 0 338.1627615862026 79.1768359287004" height="79.1768359287004" width="338.1627615862026"><g><svg viewBox="0 0 338.1627615862026 79.1768359287004" height="79.1768359287004" width="338.1627615862026"><g><svg viewBox="0 0 338.1627615862026 79.1768359287004" height="79.1768359287004" width="338.1627615862026"><g id="textblocktransform"><svg viewBox="0 0 338.1627615862026 79.1768359287004" height="79.1768359287004" width="338.1627615862026" id="textblock"><g><svg viewBox="0 0 338.1627615862026 54.51269531249999" height="54.51269531249999" width="338.1627615862026"><g><svg><g></g><g></g></svg></g><g><svg><g><svg></svg></g><g></g></svg></g><g id="text-0"><svg viewBox="0 0 338.1627615862026 54.51269531249999" height="54.51269531249999" width="338.1627615862026"><g transform="matrix(1,0,0,1,0,10.203124999999996)"><svg width="141.11328125" viewBox="4.2 -33.08 141.10000000000002 33.28" height="33.2763671875" data-palette-color="#c10000"><path d="M21.24-20.07L21.31-14.04Q20.14-14.16 18.29-14.16L18.29-14.16 10.89-14.16 10.89 0 4.2 0 4.2-32.64Q4.86-32.59 5.71-32.57L5.71-32.57 7.52-32.52Q9.38-32.47 11.38-32.47L11.38-32.47Q17.38-32.47 22.85-32.67L22.85-32.67Q22.58-30.52 22.58-26.93L22.58-26.93Q22.58-26.54 22.63-26.34L22.63-26.34 22.58-26.27Q21.29-26.64 18.97-26.64L18.97-26.64 10.89-26.64 10.89-19.92 18.02-19.92Q20.7-19.92 21.24-20.07L21.24-20.07ZM45.31 0.2L39.65-12.62Q38.91-12.57 38.08-12.57 37.25-12.57 35.62-12.7L35.62-12.7 35.62 0 29.15 0 29.15-32.64Q32.57-33.08 37.55-33.08L37.55-33.08Q44.33-33.08 47.67-30.58 51-28.08 51-22.85L51-22.85Q51-18.8 47.95-15.92L47.95-15.92Q46.95-14.99 45.65-14.31L45.65-14.31 50.63-3.81Q52.1-0.56 52.88 0.05L52.88 0.05 52.76 0.17Q50.39-0.22 45.31 0.2L45.31 0.2ZM38.01-27.32L38.01-27.32Q36.77-27.32 35.62-27.2L35.62-27.2 35.62-17.87Q36.81-17.7 38.43-17.7 40.04-17.7 41.14-17.98 42.23-18.26 43.04-18.85L43.04-18.85Q44.77-20.14 44.77-22.73 44.77-25.32 42.97-26.37L42.97-26.37Q41.28-27.32 38.01-27.32ZM62.93-7.03L60.64 0.2Q58.54 0 55.73 0L55.73 0 53.8 0 64.42-29.76Q65.13-31.76 65.13-32.09 65.13-32.42 65.11-32.5L65.11-32.5 65.13-32.54Q66.72-32.47 68.5-32.47L68.5-32.47Q69.97-32.47 72.02-32.52L72.02-32.52 72.04-32.47Q71.99-32.37 71.99-32.2L71.99-32.2Q71.99-31.74 72.72-29.74L72.72-29.74 83.56 0.07Q83.08 0.05 82.42 0.05L82.42 0.05Q82.42 0.05 81.15 0L81.15 0Q80.54 0 80.05 0L80.05 0 76.26 0 73.97-7.03 62.93-7.03ZM64.79-12.89L72.07-12.89 68.38-24.24 64.79-12.89ZM94.08 0L87.71 0Q87.86-0.83 87.86-1.81L87.86-1.81 87.86-32.47 92.74-32.47 105.68-12.11 105.68-30.81Q105.68-32.15 105.44-32.47L105.44-32.47 112.03-32.47Q111.91-31.49 111.91-30.32L111.91-30.32 111.91 0 106.83 0 94.08-19.56 94.08 0ZM126.89-9.89L126.89 0.15Q125.21 0 122.6 0L122.6 0 120.67 0 120.67-32.57 121.65-32.52Q122.67-32.47 123.18-32.47L123.18-32.47 123.89-32.47Q126.04-32.47 126.89-32.67L126.89-32.67 126.89-18.87 136.78-32.57Q138.34-32.47 139.42-32.47L139.42-32.47 140.76-32.47Q143.28-32.47 144.35-32.67L144.35-32.67 134.93-20.36 144.2-1.95Q144.79-0.61 145.3 0L145.3 0 143.81 0Q138.66 0 137.39 0.2L137.39 0.2Q137.12-1.44 136.66-2.66L136.66-2.66 130.43-14.53 126.89-9.89Z" opacity="1" transform="matrix(1,0,0,1,0,0)" fill="#c10000" class="undefined-lv-0"></path></svg></g><g><svg xmlns="http://www.w3.org/2000/svg" xmlns:xlink="http://www.w3.org/1999/xlink" version="1.1" x="153.9833984375" y="0" viewBox="4.932 4 91.068 90.18" enable-background="new 0 0 100 100" xml:space="preserve" height="54.51269531249999" width="55.049480336202585" class="icon-z$-0" data-fill-palette-color="accent" id="z$-0"><path fill="#003c3b" d="M91.329 87.359V35.071h4.491V28.25h-7.259L50.016 4l-37.53 24.25H4.932v6.821h4.491v52.289H5.47v6.82h3.953 81.907H96v-6.82H91.329zM50.018 10.062L80.013 28.25H20.917L50.018 10.062zM84.86 91.147H16.605v-3.215h8.443v-2.762h8.623v-3.116h34.485v3.116h8.981v2.762h7.723V91.147zM15.887 85.086V42.27h7.186v42.816H15.887zM36.721 52.879v-3.031h28.021v3.031H36.721zM64.563 55.152v23.872H51.63V55.152H64.563zM49.834 55.152v23.872H36.902V55.152H49.834zM85.219 85.464h-6.465V42.27h6.465V85.464zM87.555 39.618H12.833v-4.547h74.722V39.618z" data-fill-palette-color="accent"></path><g fill="#003c3b" data-fill-palette-color="accent"><path fill="#003c3b" d="M49.592 25.344c-1.709-0.101-3-0.804-3.838-1.76l0.822-1.055c0.653 0.737 1.675 1.424 3.016 1.575v-4.088c-1.709-0.47-3.486-1.039-3.486-3.101 0-1.742 1.458-2.966 3.486-3.083v-1.542h1.021v1.559c1.392 0.134 2.48 0.67 3.302 1.524l-0.838 1.022c-0.671-0.72-1.524-1.139-2.464-1.273v3.636c1.727 0.486 3.553 1.139 3.553 3.317 0 1.525-0.972 3.067-3.553 3.268v1.491h-1.021V25.344zM49.592 18.49v-3.418c-1.208 0.083-2.045 0.771-2.045 1.76C47.547 17.77 48.452 18.155 49.592 18.49zM50.613 20.3v3.804c1.592-0.168 2.111-1.123 2.111-1.91C52.725 21.105 51.787 20.652 50.613 20.3z" data-fill-palette-color="accent"></path></g></svg></g><g transform="matrix(1,0,0,1,221.90299596120258,10.410644531249996)"><svg width="116.259765625" viewBox="4.2 -33.08 116.25 33.69" height="33.69140625" data-palette-color="#c10000"><path d="M24.72-2.38Q22.92-0.95 20.07-0.17 17.21 0.61 13.05 0.61 8.89 0.61 4.2-0.15L4.2-0.15 4.2-32.32Q8.94-33.08 12.41-33.08 15.89-33.08 18.13-32.42 20.36-31.76 21.78-30.64L21.78-30.64Q24.56-28.47 24.56-25.01 24.56-21.56 22.05-19.29L22.05-19.29Q25.02-18.36 26.66-15.77L26.66-15.77Q28.15-13.45 28.15-10.63 28.15-7.81 27.33-5.81 26.51-3.81 24.72-2.38ZM10.67-27.81L10.67-20.19Q11.69-20.02 13.23-20.02 14.77-20.02 15.76-20.42 16.75-20.83 17.29-21.44L17.29-21.44Q18.16-22.44 18.16-24.22L18.16-24.22Q18.16-27.95 13.77-27.95L13.77-27.95Q11.91-27.95 10.67-27.81L10.67-27.81ZM14.28-14.97L14.28-14.97Q12.23-14.97 10.67-14.7L10.67-14.7 10.67-5.1Q12.38-4.66 14.26-4.66 16.14-4.66 17.57-5.11 18.99-5.57 19.97-6.35L19.97-6.35Q21.95-7.96 21.95-10.45L21.95-10.45Q21.95-14.97 14.28-14.97ZM38.08-7.03L35.79 0.2Q33.69 0 30.88 0L30.88 0 28.95 0 39.57-29.76Q40.28-31.76 40.28-32.09 40.28-32.42 40.26-32.5L40.26-32.5 40.28-32.54Q41.87-32.47 43.65-32.47L43.65-32.47Q45.11-32.47 47.17-32.52L47.17-32.52 47.19-32.47Q47.14-32.37 47.14-32.2L47.14-32.2Q47.14-31.74 47.87-29.74L47.87-29.74 58.71 0.07Q58.23 0.05 57.57 0.05L57.57 0.05Q57.57 0.05 56.3 0L56.3 0Q55.69 0 55.2 0L55.2 0 51.41 0 49.12-7.03 38.08-7.03ZM39.94-12.89L47.21-12.89 43.53-24.24 39.94-12.89ZM69.23 0L62.86 0Q63.01-0.83 63.01-1.81L63.01-1.81 63.01-32.47 67.89-32.47 80.83-12.11 80.83-30.81Q80.83-32.15 80.59-32.47L80.59-32.47 87.18-32.47Q87.06-31.49 87.06-30.32L87.06-30.32 87.06 0 81.98 0 69.23-19.56 69.23 0ZM102.04-9.89L102.04 0.15Q100.36 0 97.75 0L97.75 0 95.82 0 95.82-32.57 96.79-32.52Q97.82-32.47 98.33-32.47L98.33-32.47 99.04-32.47Q101.19-32.47 102.04-32.67L102.04-32.67 102.04-18.87 111.93-32.57Q113.49-32.47 114.57-32.47L114.57-32.47 115.91-32.47Q118.43-32.47 119.5-32.67L119.5-32.67 110.08-20.36 119.35-1.95Q119.94-0.61 120.45 0L120.45 0 118.96 0Q113.81 0 112.54 0.2L112.54 0.2Q112.27-1.44 111.81-2.66L111.81-2.66 105.58-14.53 102.04-9.89Z" opacity="1" transform="matrix(1,0,0,1,0,0)" fill="#c10000" class="undefined-lv-1"></path></svg></g></svg></g></svg></g><g transform="matrix(1,0,0,1,64.58908746296468,62.368446972656244)"><svg viewBox="0 0 208.9845866602732 16.808388956044148" height="16.808388956044148" width="208.9845866602732"><g transform="matrix(1,0,0,1,0,0)"><svg width="208.9845866602732" viewBox="2.88 -37.5 598.84 48.17" height="16.808388956044148" data-palette-color="#003c3b"><path d="M31.47-18.87L31.47-16.63Q31.47-11.4 29.71-7.51 27.95-3.61 24.73-1.56 21.51 0.49 17.21 0.49L17.21 0.49Q13.01 0.49 9.77-1.57 6.52-3.64 4.72-7.46 2.93-11.28 2.88-16.31L2.88-16.31 2.88-18.87Q2.88-24 4.66-27.93 6.45-31.86 9.7-33.95 12.96-36.04 17.16-36.04L17.16-36.04Q21.44-36.04 24.69-33.97 27.95-31.91 29.71-27.99 31.47-24.07 31.47-18.87L31.47-18.87ZM26.81-16.28L26.81-18.92Q26.81-25.24 24.27-28.63 21.73-32.01 17.16-32.01L17.16-32.01Q12.72-32.01 10.17-28.63 7.62-25.24 7.54-19.24L7.54-19.24 7.54-16.63Q7.54-10.5 10.12-6.99 12.7-3.49 17.21-3.49L17.21-3.49Q21.75-3.49 24.24-6.8 26.73-10.11 26.81-16.28L26.81-16.28ZM37.79-26.42L42.06-26.42 42.21-23.1Q45.24-26.9 50.12-26.9L50.12-26.9Q58.49-26.9 58.57-17.46L58.57-17.46 58.57 0 54.05 0 54.05-17.48Q54.03-20.34 52.74-21.7 51.46-23.07 48.75-23.07L48.75-23.07Q46.56-23.07 44.89-21.9 43.23-20.73 42.31-18.82L42.31-18.82 42.31 0 37.79 0 37.79-26.42ZM70.28-37.5L70.28 0 65.77 0 65.77-37.5 70.28-37.5ZM79.56-26.42L86.15-6.62 92.3-26.42 97.14-26.42 86.52 4.08Q84.05 10.67 78.68 10.67L78.68 10.67 77.82 10.6 76.14 10.28 76.14 6.62 77.36 6.71Q79.66 6.71 80.94 5.79 82.22 4.86 83.05 2.39L83.05 2.39 84.05-0.29 74.63-26.42 79.56-26.42ZM115.15-32.81L119.67-32.81 119.67-26.42 124.6-26.42 124.6-22.92 119.67-22.92 119.67-6.54Q119.67-4.96 120.32-4.16 120.98-3.37 122.57-3.37L122.57-3.37Q123.35-3.37 124.72-3.66L124.72-3.66 124.72 0Q122.94 0.49 121.25 0.49L121.25 0.49Q118.22 0.49 116.69-1.34 115.15-3.17 115.15-6.54L115.15-6.54 115.15-22.92 110.34-22.92 110.34-26.42 115.15-26.42 115.15-32.81ZM134.38-37.5L134.38-23.22Q137.39-26.9 142.2-26.9L142.2-26.9Q150.57-26.9 150.64-17.46L150.64-17.46 150.64 0 146.13 0 146.13-17.48Q146.1-20.34 144.82-21.7 143.54-23.07 140.83-23.07L140.83-23.07Q138.63-23.07 136.97-21.9 135.31-20.73 134.38-18.82L134.38-18.82 134.38 0 129.87 0 129.87-37.5 134.38-37.5ZM168.37 0.49L168.37 0.49Q163 0.49 159.63-3.04 156.26-6.57 156.26-12.48L156.26-12.48 156.26-13.31Q156.26-17.24 157.76-20.32 159.26-23.41 161.96-25.16 164.66-26.9 167.8-26.9L167.8-26.9Q172.96-26.9 175.81-23.51 178.67-20.12 178.67-13.79L178.67-13.79 178.67-11.91 160.77-11.91Q160.87-8.01 163.06-5.6 165.24-3.2 168.61-3.2L168.61-3.2Q171-3.2 172.66-4.17 174.32-5.15 175.57-6.76L175.57-6.76 178.33-4.61Q175.01 0.49 168.37 0.49ZM167.8-23.19L167.8-23.19Q165.07-23.19 163.21-21.2 161.36-19.21 160.92-15.63L160.92-15.63 174.15-15.63 174.15-15.97Q173.96-19.41 172.3-21.3 170.64-23.19 167.8-23.19ZM218.63-13.31L218.63-12.92Q218.63-6.86 215.85-3.19 213.06 0.49 208.38 0.49L208.38 0.49Q203.37 0.49 200.64-3.05L200.64-3.05 200.42 0 196.27 0 196.27-37.5 200.78-37.5 200.78-23.51Q203.52-26.9 208.33-26.9 213.14-26.9 215.88-23.27 218.63-19.63 218.63-13.31L218.63-13.31ZM214.11-13.43L214.11-13.43Q214.11-18.04 212.33-20.56 210.55-23.07 207.2-23.07L207.2-23.07Q202.74-23.07 200.78-18.92L200.78-18.92 200.78-7.5Q202.86-3.34 207.25-3.34L207.25-3.34Q210.5-3.34 212.31-5.86 214.11-8.37 214.11-13.43ZM235.28 0.49L235.28 0.49Q229.91 0.49 226.54-3.04 223.17-6.57 223.17-12.48L223.17-12.48 223.17-13.31Q223.17-17.24 224.67-20.32 226.17-23.41 228.87-25.16 231.57-26.9 234.72-26.9L234.72-26.9Q239.87-26.9 242.72-23.51 245.58-20.12 245.58-13.79L245.58-13.79 245.58-11.91 227.68-11.91Q227.78-8.01 229.97-5.6 232.15-3.2 235.52-3.2L235.52-3.2Q237.91-3.2 239.57-4.17 241.23-5.15 242.48-6.76L242.48-6.76 245.24-4.61Q241.92 0.49 235.28 0.49ZM234.72-23.19L234.72-23.19Q231.98-23.19 230.13-21.2 228.27-19.21 227.83-15.63L227.83-15.63 241.06-15.63 241.06-15.97Q240.87-19.41 239.21-21.3 237.55-23.19 234.72-23.19ZM266.18-7.01L266.18-7.01Q266.18-8.84 264.8-9.85 263.42-10.86 259.99-11.6 256.56-12.33 254.55-13.35 252.54-14.38 251.57-15.8 250.61-17.21 250.61-19.17L250.61-19.17Q250.61-22.41 253.35-24.66 256.1-26.9 260.37-26.9L260.37-26.9Q264.87-26.9 267.66-24.58 270.46-22.27 270.46-18.65L270.46-18.65 265.91-18.65Q265.91-20.51 264.34-21.85 262.77-23.19 260.37-23.19L260.37-23.19Q257.91-23.19 256.52-22.12 255.12-21.04 255.12-19.31L255.12-19.31Q255.12-17.68 256.42-16.85 257.71-16.02 261.09-15.26 264.47-14.5 266.57-13.45 268.67-12.4 269.69-10.93 270.7-9.45 270.7-7.32L270.7-7.32Q270.7-3.78 267.87-1.65 265.04 0.49 260.52 0.49L260.52 0.49Q257.35 0.49 254.9-0.63 252.46-1.76 251.08-3.77 249.7-5.79 249.7-8.13L249.7-8.13 254.22-8.13Q254.34-5.86 256.04-4.53 257.74-3.2 260.52-3.2L260.52-3.2Q263.08-3.2 264.63-4.24 266.18-5.27 266.18-7.01ZM278.19-32.81L282.71-32.81 282.71-26.42 287.64-26.42 287.64-22.92 282.71-22.92 282.71-6.54Q282.71-4.96 283.37-4.16 284.03-3.37 285.61-3.37L285.61-3.37Q286.4-3.37 287.76-3.66L287.76-3.66 287.76 0Q285.98 0.49 284.3 0.49L284.3 0.49Q281.27 0.49 279.73-1.34 278.19-3.17 278.19-6.54L278.19-6.54 278.19-22.92 273.38-22.92 273.38-26.42 278.19-26.42 278.19-32.81ZM306.9-32.81L311.42-32.81 311.42-26.42 316.35-26.42 316.35-22.92 311.42-22.92 311.42-6.54Q311.42-4.96 312.07-4.16 312.73-3.37 314.32-3.37L314.32-3.37Q315.1-3.37 316.47-3.66L316.47-3.66 316.47 0Q314.69 0.49 313 0.49L313 0.49Q309.97 0.49 308.44-1.34 306.9-3.17 306.9-6.54L306.9-6.54 306.9-22.92 302.09-22.92 302.09-26.42 306.9-26.42 306.9-32.81ZM334.39-26.56L334.39-22.36Q333.36-22.53 332.16-22.53L332.16-22.53Q327.72-22.53 326.13-18.75L326.13-18.75 326.13 0 321.62 0 321.62-26.42 326.01-26.42 326.09-23.36Q328.31-26.9 332.38-26.9L332.38-26.9Q333.7-26.9 334.39-26.56L334.39-26.56ZM358.6 0L353.87 0Q353.48-0.78 353.23-2.78L353.23-2.78Q350.08 0.49 345.71 0.49L345.71 0.49Q341.81 0.49 339.3-1.72 336.8-3.93 336.8-7.32L336.8-7.32Q336.8-11.45 339.94-13.73 343.08-16.02 348.76-16.02L348.76-16.02 353.16-16.02 353.16-18.09Q353.16-20.46 351.74-21.86 350.33-23.27 347.57-23.27L347.57-23.27Q345.15-23.27 343.51-22.05 341.88-20.83 341.88-19.09L341.88-19.09 337.34-19.09Q337.34-21.07 338.74-22.91 340.15-24.76 342.55-25.83 344.96-26.9 347.84-26.9L347.84-26.9Q352.4-26.9 354.99-24.62 357.58-22.34 357.67-18.33L357.67-18.33 357.67-6.18Q357.67-2.54 358.6-0.39L358.6-0.39 358.6 0ZM346.37-3.44L346.37-3.44Q348.5-3.44 350.4-4.54 352.3-5.64 353.16-7.4L353.16-7.4 353.16-12.82 349.62-12.82Q341.32-12.82 341.32-7.96L341.32-7.96Q341.32-5.83 342.73-4.64 344.15-3.44 346.37-3.44ZM364.75-26.42L369.02-26.42 369.17-23.1Q372.2-26.9 377.08-26.9L377.08-26.9Q385.46-26.9 385.53-17.46L385.53-17.46 385.53 0 381.01 0 381.01-17.48Q380.99-20.34 379.71-21.7 378.42-23.07 375.71-23.07L375.71-23.07Q373.52-23.07 371.86-21.9 370.2-20.73 369.27-18.82L369.27-18.82 369.27 0 364.75 0 364.75-26.42ZM407.72-7.01L407.72-7.01Q407.72-8.84 406.34-9.85 404.96-10.86 401.53-11.6 398.1-12.33 396.09-13.35 394.07-14.38 393.11-15.8 392.14-17.21 392.14-19.17L392.14-19.17Q392.14-22.41 394.89-24.66 397.64-26.9 401.91-26.9L401.91-26.9Q406.4-26.9 409.2-24.58 411.99-22.27 411.99-18.65L411.99-18.65 407.45-18.65Q407.45-20.51 405.88-21.85 404.3-23.19 401.91-23.19L401.91-23.19Q399.44-23.19 398.05-22.12 396.66-21.04 396.66-19.31L396.66-19.31Q396.66-17.68 397.95-16.85 399.25-16.02 402.63-15.26 406.01-14.5 408.11-13.45 410.21-12.4 411.22-10.93 412.24-9.45 412.24-7.32L412.24-7.32Q412.24-3.78 409.4-1.65 406.57 0.49 402.05 0.49L402.05 0.49Q398.88 0.49 396.44-0.63 394-1.76 392.62-3.77 391.24-5.79 391.24-8.13L391.24-8.13 395.76-8.13Q395.88-5.86 397.57-4.53 399.27-3.2 402.05-3.2L402.05-3.2Q404.62-3.2 406.17-4.24 407.72-5.27 407.72-7.01ZM439.16 0L434.43 0Q434.03-0.78 433.79-2.78L433.79-2.78Q430.64 0.49 426.27 0.49L426.27 0.49Q422.36 0.49 419.86-1.72 417.36-3.93 417.36-7.32L417.36-7.32Q417.36-11.45 420.5-13.73 423.63-16.02 429.32-16.02L429.32-16.02 433.72-16.02 433.72-18.09Q433.72-20.46 432.3-21.86 430.89-23.27 428.13-23.27L428.13-23.27Q425.71-23.27 424.07-22.05 422.44-20.83 422.44-19.09L422.44-19.09 417.9-19.09Q417.9-21.07 419.3-22.91 420.7-24.76 423.11-25.83 425.51-26.9 428.39-26.9L428.39-26.9Q432.96-26.9 435.55-24.62 438.14-22.34 438.23-18.33L438.23-18.33 438.23-6.18Q438.23-2.54 439.16-0.39L439.16-0.39 439.16 0ZM426.93-3.44L426.93-3.44Q429.05-3.44 430.96-4.54 432.86-5.64 433.72-7.4L433.72-7.4 433.72-12.82 430.18-12.82Q421.88-12.82 421.88-7.96L421.88-7.96Q421.88-5.83 423.29-4.64 424.71-3.44 426.93-3.44ZM460.69-7.01L460.69-7.01Q460.69-8.84 459.31-9.85 457.93-10.86 454.5-11.6 451.07-12.33 449.06-13.35 447.04-14.38 446.08-15.8 445.12-17.21 445.12-19.17L445.12-19.17Q445.12-22.41 447.86-24.66 450.61-26.9 454.88-26.9L454.88-26.9Q459.37-26.9 462.17-24.58 464.96-22.27 464.96-18.65L464.96-18.65 460.42-18.65Q460.42-20.51 458.85-21.85 457.27-23.19 454.88-23.19L454.88-23.19Q452.42-23.19 451.02-22.12 449.63-21.04 449.63-19.31L449.63-19.31Q449.63-17.68 450.93-16.85 452.22-16.02 455.6-15.26 458.98-14.5 461.08-13.45 463.18-12.4 464.2-10.93 465.21-9.45 465.21-7.32L465.21-7.32Q465.21-3.78 462.38-1.65 459.54 0.49 455.03 0.49L455.03 0.49Q451.85 0.49 449.41-0.63 446.97-1.76 445.59-3.77 444.21-5.79 444.21-8.13L444.21-8.13 448.73-8.13Q448.85-5.86 450.55-4.53 452.24-3.2 455.03-3.2L455.03-3.2Q457.59-3.2 459.14-4.24 460.69-5.27 460.69-7.01ZM481.69-3.2L481.69-3.2Q484.1-3.2 485.91-4.66 487.72-6.13 487.91-8.33L487.91-8.33 492.18-8.33Q492.06-6.05 490.62-4 489.18-1.95 486.78-0.73 484.37 0.49 481.69 0.49L481.69 0.49Q476.29 0.49 473.1-3.11 469.92-6.71 469.92-12.96L469.92-12.96 469.92-13.72Q469.92-17.58 471.33-20.58 472.75-23.58 475.4-25.24 478.05-26.9 481.66-26.9L481.66-26.9Q486.1-26.9 489.05-24.24 491.99-21.58 492.18-17.33L492.18-17.33 487.91-17.33Q487.72-19.9 485.97-21.55 484.22-23.19 481.66-23.19L481.66-23.19Q478.22-23.19 476.33-20.72 474.43-18.24 474.43-13.55L474.43-13.55 474.43-12.7Q474.43-8.13 476.31-5.66 478.19-3.2 481.69-3.2ZM498.87-32.81L503.39-32.81 503.39-26.42 508.32-26.42 508.32-22.92 503.39-22.92 503.39-6.54Q503.39-4.96 504.05-4.16 504.71-3.37 506.29-3.37L506.29-3.37Q507.07-3.37 508.44-3.66L508.44-3.66 508.44 0Q506.66 0.49 504.97 0.49L504.97 0.49Q501.95 0.49 500.41-1.34 498.87-3.17 498.87-6.54L498.87-6.54 498.87-22.92 494.06-22.92 494.06-26.42 498.87-26.42 498.87-32.81ZM518.5-26.42L518.5 0 513.98 0 513.98-26.42 518.5-26.42ZM513.61-33.42L513.61-33.42Q513.61-34.52 514.29-35.28 514.96-36.04 516.28-36.04 517.59-36.04 518.28-35.28 518.96-34.52 518.96-33.42 518.96-32.32 518.28-31.59 517.59-30.86 516.28-30.86 514.96-30.86 514.29-31.59 513.61-32.32 513.61-33.42ZM524.52-13.13L524.52-13.45Q524.52-17.33 526.05-20.43 527.58-23.54 530.3-25.22 533.02-26.9 536.51-26.9L536.51-26.9Q541.91-26.9 545.24-23.17 548.57-19.43 548.57-13.23L548.57-13.23 548.57-12.92Q548.57-9.06 547.1-5.99 545.62-2.93 542.87-1.22 540.13 0.49 536.56 0.49L536.56 0.49Q531.19 0.49 527.86-3.25 524.52-6.98 524.52-13.13L524.52-13.13ZM529.07-12.92L529.07-12.92Q529.07-8.52 531.1-5.86 533.14-3.2 536.56-3.2L536.56-3.2Q540-3.2 542.03-5.9 544.06-8.59 544.06-13.45L544.06-13.45Q544.06-17.8 541.99-20.5 539.93-23.19 536.51-23.19L536.51-23.19Q533.17-23.19 531.12-20.53 529.07-17.87 529.07-12.92ZM554.23-26.42L558.51-26.42 558.65-23.1Q561.68-26.9 566.56-26.9L566.56-26.9Q574.94-26.9 575.01-17.46L575.01-17.46 575.01 0 570.49 0 570.49-17.48Q570.47-20.34 569.19-21.7 567.91-23.07 565.2-23.07L565.2-23.07Q563-23.07 561.34-21.9 559.68-20.73 558.75-18.82L558.75-18.82 558.75 0 554.23 0 554.23-26.42ZM597.2-7.01L597.2-7.01Q597.2-8.84 595.82-9.85 594.44-10.86 591.01-11.6 587.58-12.33 585.57-13.35 583.55-14.38 582.59-15.8 581.62-17.21 581.62-19.17L581.62-19.17Q581.62-22.41 584.37-24.66 587.12-26.9 591.39-26.9L591.39-26.9Q595.88-26.9 598.68-24.58 601.47-22.27 601.47-18.65L601.47-18.65 596.93-18.65Q596.93-20.51 595.36-21.85 593.78-23.19 591.39-23.19L591.39-23.19Q588.92-23.19 587.53-22.12 586.14-21.04 586.14-19.31L586.14-19.31Q586.14-17.68 587.43-16.85 588.73-16.02 592.11-15.26 595.49-14.5 597.59-13.45 599.69-12.4 600.7-10.93 601.72-9.45 601.72-7.32L601.72-7.32Q601.72-3.78 598.89-1.65 596.05 0.49 591.54 0.49L591.54 0.49Q588.36 0.49 585.92-0.63 583.48-1.76 582.1-3.77 580.72-5.79 580.72-8.13L580.72-8.13 585.24-8.13Q585.36-5.86 587.06-4.53 588.75-3.2 591.54-3.2L591.54-3.2Q594.1-3.2 595.65-4.24 597.2-5.27 597.2-7.01Z" opacity="1" transform="matrix(1,0,0,1,0,0)" fill="#003c3b" class="slogan-text-1" data-fill-palette-color="secondary" id="text-1"></path></svg></g></svg></g></svg></g></svg></g></svg></g><defs></defs></svg><rect width="338.1627615862026" height="79.1768359287004" fill="none" stroke="none" visibility="hidden"></rect></g></svg></g></svg>